# xmcd CD database file generated by MAGIX_Freedb v0.9beta0
# 
# Track frame offsets:
#      150
#      15510
#      31027
#      42795
#      58727
#      72135
#      86102
#      99850
#      114992
#      130992
#      147682
#      161162
#      176740
#      192537
#      208897
#      226052
#      240132
#      253552
# 
# Disc length: 3582 seconds
# 
# Revision: 1 
# Processed by: cddbd v1.5.1PL2 Copyright (c) Steve Scherf et al.
# Submitted via: MAGIX_Freedb v0.9beta0
# 
DISCID=f20dfc12
DTITLE=Kastelruther Spatzen - 24 Karat Gold
DYEAR=1900
DGENRE=Volksmusik
TTITLE0=Kastelruther Spatzen - Der rote Diamant
TTITLE1=Bella Rosa
TTITLE2=Tränen passen nicht zu Dir
TTITLE3=Wenn Berge träumen
TTITLE4=Volksmusik ist Herzmusik
TTITLE5=Monte D´ Amore
TTITLE6=Komm nimm doch mit
TTITLE7=Das Mädchen mit den erloschenen Augen
TTITLE8=Streit oder Frieden
TTITLE9=Auf der Flucht vor meinen Gefühlen
TTITLE10=Wahrheit ist ein schmaler Grat
TTITLE11=Maria Tristezza
TTITLE12=Einmal nur
TTITLE13=Doch die Sehnsucht bleibt
TTITLE14=Atlantis der Berge
TTITLE15=Drei Zinnen
TTITLE16=Che bell la Vita
TTITLE17=Arrividerci non Amour
EXTD=
EXTT0=
EXTT1=
EXTT2=
EXTT3=
EXTT4=
EXTT5=
EXTT6=
EXTT7=
EXTT8=
EXTT9=
EXTT10=
EXTT11=
EXTT12=
EXTT13=
EXTT14=
EXTT15=
EXTT16=
EXTT17=
PLAYORDER=
